Coordinates
version=1
nRows=49
nColumns=12
inDegrees=yes

Units are S.I. units (second, meters, Newtons, ...)
Angles are in degrees

endheader
time	SC_y	SC_z	SC_x	AC_y	AC_z	AC_x	GH_y	GH_z	GH_yy	EL_x	PS_y
       0.0              -25.16          5.511          48.48          66.94         -14.31         -5.046           6.76          33.38         -82.72          81.13          90.19
   0.02318              -25.16          5.512          48.49          66.94         -14.31         -5.046          6.783          33.37          -82.7          81.13          90.19
   0.04636              -25.16          5.514          48.49          66.93         -14.31         -5.047          6.808          33.37         -82.67          81.12          90.18
   0.06953              -25.16          5.515           48.5          66.93         -14.31         -5.048          6.834          33.36         -82.64          81.11          90.18
   0.09271              -25.17          5.517           48.5          66.93         -14.31         -5.049          6.862          33.36         -82.61           81.1          90.17
    0.1159              -25.17          5.519          48.51          66.93         -14.31          -5.05          6.891          33.35         -82.58          81.09          90.17
    0.1391              -25.17          5.521          48.52          66.93         -14.31         -5.051          6.923          33.35         -82.55          81.09          90.16
    0.1622              -25.17          5.523          48.52          66.92         -14.31         -5.052          6.956          33.34         -82.51          81.08          90.15
    0.1854              -25.18          5.525          48.53          66.92         -14.31         -5.053          6.992          33.33         -82.47          81.07          90.14
    0.2086              -25.18          5.527          48.54          66.92         -14.31         -5.054          7.031          33.33         -82.43          81.05          90.14
    0.2318              -25.19          5.529          48.55          66.92         -14.31         -5.056          7.073          33.32         -82.38          81.04          90.13
     0.255              -25.19          5.532          48.56          66.91         -14.31         -5.057          7.117          33.31         -82.33          81.03          90.12
    0.2781              -25.19          5.535          48.56          66.91         -14.31         -5.059          7.165           33.3         -82.28          81.02          90.11
    0.3013               -25.2          5.538          48.57          66.91         -14.31          -5.06          7.218          33.29         -82.22           81.0           90.1
    0.3245               -25.2          5.541          48.59           66.9         -14.31         -5.062          7.274          33.28         -82.16          80.99          90.09
    0.3477              -25.21          5.545           48.6           66.9         -14.31         -5.064          7.335          33.27          -82.1          80.97          90.08
    0.3708              -25.22          5.549          48.61          66.89         -14.31         -5.066          7.401          33.25         -82.02          80.95          90.06
     0.394              -25.22          5.553          48.63          66.89         -14.31         -5.068          7.474          33.24         -81.94          80.93          90.05
    0.4172              -25.23          5.558          48.64          66.88         -14.31         -5.071          7.553          33.22         -81.86          80.91          90.03
    0.4404              -25.24          5.563          48.66          66.88         -14.31         -5.074          7.639          33.21         -81.76          80.88          90.01
    0.4636              -25.25          5.569          48.68          66.87         -14.31         -5.077          7.734          33.19         -81.66          80.85          89.99
    0.4867              -25.26          5.575           48.7          66.86         -14.31          -5.08          7.839          33.17         -81.55          80.82          89.97
    0.5099              -25.27          5.582          48.72          66.86         -14.31         -5.084          7.954          33.15         -81.42          80.79          89.95
    0.5331              -25.28          5.589          48.75          66.85         -14.31         -5.088          8.082          33.12         -81.28          80.75          89.92
    0.5563              -25.29          5.598          48.77          66.84         -14.32         -5.093          8.224           33.1         -81.13          80.71          89.89
    0.5794              -25.31          5.607          48.81          66.83         -14.32         -5.098          8.383          33.06         -80.95          80.67          89.86
    0.6026              -25.33          5.618          48.84          66.81         -14.32         -5.103          8.561          33.03         -80.76          80.62          89.83
    0.6258              -25.35           5.63          48.88           66.8         -14.32          -5.11          8.761          32.99         -80.54          80.56          89.79
     0.649              -25.37          5.643          48.93          66.78         -14.32         -5.117          8.987          32.95         -80.29           80.5          89.74
    0.6722              -25.39          5.658          48.98          66.77         -14.32         -5.125          9.244           32.9         -80.01          80.42          89.69
    0.6953              -25.42          5.676          49.03          66.75         -14.32         -5.135          9.536          32.84          -79.7          80.34          89.63
    0.7185              -25.45          5.695           49.1          66.72         -14.33         -5.145          9.872          32.78         -79.33          80.24          89.56
    0.7417              -25.49          5.718          49.18           66.7         -14.33         -5.158          10.26           32.7         -78.91          80.13          89.48
    0.7649              -25.53          5.745          49.27          66.66         -14.33         -5.172          10.71          32.62         -78.41           80.0          89.39
     0.788              -25.58          5.776          49.37          66.63         -14.33         -5.189          11.24          32.51         -77.84          79.85          89.28
    0.8112              -25.64          5.813          49.49          66.58         -14.34         -5.209          11.86          32.39         -77.16          79.67          89.15
    0.8344              -25.71          5.857          49.64          66.53         -14.34         -5.233           12.6          32.25         -76.36          79.46           89.0
    0.8576              -25.79           5.91          49.82          66.47         -14.35         -5.261          13.49          32.08         -75.39          79.21          88.82
    0.8808               -25.9          5.973          50.03           66.4         -14.35         -5.295          14.56          31.88         -74.22           78.9          88.61
    0.9039              -26.02          6.051          50.29          66.31         -14.36         -5.337          15.87          31.62         -72.79          78.53          88.34
    0.9271              -26.17          6.147          50.61           66.2         -14.37         -5.389          17.48          31.31         -71.03          78.07          88.01
    0.9503              -26.36          6.266          51.01          66.06         -14.38         -5.454           19.5          30.92         -68.83          77.49           87.6
    0.9735               -26.6          6.417          51.51          65.88          -14.4         -5.535          22.04          30.43         -66.07          76.76          87.08
    0.9966              -26.91          6.608          52.15          65.66         -14.42         -5.638          25.26          29.81         -62.55          75.84          86.43
      1.02               -27.3          6.853          52.97          65.37         -14.45         -5.771          29.39          29.02         -58.05          74.66          85.59
     1.043              -27.81          7.167          54.01           65.0         -14.48          -5.94          34.69           28.0         -52.27          73.15          84.51
     1.066              -28.45          7.569          55.36          64.53         -14.52         -6.157          41.46          26.69         -44.89          71.21          83.13
     1.089              -29.26          8.074          57.04          63.94         -14.57          -6.43          49.98          25.05          -35.6          68.78           81.4
     1.113              -30.24          8.689          59.09          63.23         -14.63         -6.762          60.35          23.05         -24.29          65.81          79.29
